<?xml version="1.0" encoding="utf-8"?>
<!-- Generator: Adobe Illustrator 22.1.0, SVG Export Plug-In . SVG Version: 6.00 Build 0)  -->
<svg version="1.1" id="Layer_1" xmlns="http://www.w3.org/2000/svg" xmlns:xlink="http://www.w3.org/1999/xlink" x="0px" y="0px"
	 viewBox="0 0 612 144" style="enable-background:new 0 0 612 144;" xml:space="preserve">
<style type="text/css">
	.st0{fill:#00A8AB;}
	.st1{fill:#333334;}
</style>
<path class="st0" d="M269.2,47.3c1.2,5.6-2.3,11.1-7.9,12.3c-5.6,1.2-11.1-2.3-12.3-7.9c-1.2-5.6,2.3-11.1,7.9-12.3
	C262.5,38.3,268,41.8,269.2,47.3"/>
<polygon class="st0" points="55.7,53.6 73.1,95.7 90.2,53.6 110.6,53.6 77.7,127.7 68.5,127.7 35.2,53.6 "/>
<path class="st0" d="M150.1,52.2c7.6,0,14.4,1.6,20.6,4.7c6.2,3.2,10.9,7.6,14.3,13.3c3.4,5.7,5.1,12.2,5.1,19.4
	c0,7.5-1.6,14.1-4.9,19.8c-3.2,5.7-8,10.1-14.3,13.4c-6.3,3.3-13.2,4.9-20.8,4.9c-7.6,0-14.5-1.6-20.8-4.9
	c-6.2-3.3-11-7.7-14.2-13.4c-3.2-5.7-4.9-12.2-4.9-19.8c0-7.3,1.7-13.8,5.1-19.5c3.4-5.7,8.2-10.1,14.3-13.2S142.6,52.2,150.1,52.2
	 M130.3,89.6c0,7.3,1.8,13.1,5.3,17.4c3.5,4.3,8.3,6.5,14.3,6.5c6.2,0,11.1-2.1,14.7-6.2c3.6-4.2,5.4-10.1,5.4-17.8
	c0-7.4-1.8-13.1-5.4-17.1c-3.6-4-8.5-6-14.7-6c-5.8,0-10.5,2.1-14.2,6.4C132.1,77,130.3,82.6,130.3,89.6"/>
<rect x="202.8" y="17.6" class="st0" width="19.1" height="108.7"/>
<path class="st0" d="M253.1,127.3h15.5c-4.5-18.7,2.8-53,2.8-53C244.1,72.8,235,46.7,235,46.7s3.7,30,8.1,48
	C245.4,104.4,246.8,112.4,253.1,127.3"/>
<path class="st0" d="M282.9,47.3c-1.2,5.6,2.3,11.1,7.9,12.3c5.6,1.2,11.1-2.3,12.3-7.9c1.2-5.6-2.3-11.1-7.9-12.3
	C289.6,38.3,284.1,41.8,282.9,47.3"/>
<path class="st0" d="M299.1,127.3h-15.5c4.5-18.7-2.8-53-2.8-53c27.2-1.5,36.4-27.6,36.4-27.6s-3.7,30-8.1,48
	C306.7,104.4,305.3,112.4,299.1,127.3"/>
<g>
	<path class="st1" d="M396.9,32.3h-5.7v14.4h-2.4V32.3H383v-2.1h13.9V32.3z"/>
	<path class="st1" d="M401,37.3L401,37.3c0.9-1,2.1-1.7,3.3-1.7c2.1,0,3.7,1.5,3.7,4.5v6.7h-2.2V40c0-1.6-0.8-2.7-2.1-2.7
		c-0.9,0-1.7,0.4-2.7,1.6v7.8h-2.2V30.2h2.2V37.3z"/>
	<path class="st1" d="M420.1,45.7c-1.3,0.9-2.5,1.3-4.4,1.3c-3.4,0-5.3-2.8-5.3-5.8c0-3.3,2.1-5.5,5.1-5.5c2.9,0,4.7,2,4.7,6h-7.7
		c0.3,2.2,1.6,3.3,3.7,3.3c1.3,0,2.6-0.5,3.8-1.3V45.7z M418.2,40.2c-0.1-1.7-1-2.7-2.6-2.7c-1.7,0-2.7,1-2.9,2.7H418.2z"/>
	<path class="st1" d="M445.1,46.7h-2L431.9,34v12.8h-2.2V30.2h1.9L442.8,43V30.2h2.2V46.7z"/>
	<path class="st1" d="M457.6,45.7c-1.3,0.9-2.5,1.3-4.4,1.3c-3.4,0-5.3-2.8-5.3-5.8c0-3.3,2.1-5.5,5.1-5.5c2.9,0,4.7,2,4.7,6h-7.7
		c0.3,2.2,1.6,3.3,3.7,3.3c1.3,0,2.6-0.5,3.8-1.3V45.7z M455.6,40.2c-0.1-1.7-1-2.7-2.6-2.7c-1.7,0-2.7,1-2.9,2.7H455.6z"/>
	<path class="st1" d="M465.9,41.2l4.8,5.5h-2.8l-3.4-3.9l-3.2,3.9h-2.7l4.6-5.5l-4.6-5.4h2.7l3.2,3.7l3.1-3.7h2.8L465.9,41.2z"/>
	<path class="st1" d="M474.8,35.8h3.5v1.9h-3.5v5.6c0,1.3,0.9,1.7,1.6,1.7c0.8,0,1.6-0.3,2.5-0.8v2c-0.8,0.4-1.9,0.7-2.6,0.7
		c-2.4,0-3.5-1.5-3.5-3.4v-5.8h-1.9v-0.2l4.1-4V35.8z"/>
</g>
<g>
	<path class="st1" d="M380.9,78.7c-3.3,1.5-6,2-9.5,2c-7.6,0-13.2-5.3-13.2-12.6c0-7.3,5.8-12.9,13.4-12.9c2.9,0,5,0.5,8.9,2.1V61
		c-2.9-1.6-5.9-2.4-8.9-2.4c-5.4,0-9.6,4.1-9.6,9.5c0,5.5,4.2,9.4,10.1,9.4c1.9,0,3.7-0.4,5.4-1v-5.1h-4.8v-3.2h8.4V78.7z"/>
	<path class="st1" d="M399.9,78.8c-2,1.3-3.8,1.9-6.5,1.9c-5.1,0-8-4.2-8-8.7c0-5,3.1-8.3,7.7-8.3c4.3,0,7.1,3,7.1,9h-11.5
		c0.5,3.2,2.4,4.9,5.5,4.9c2,0,3.8-0.7,5.7-2V78.8z M397,70.6c-0.1-2.5-1.5-4.1-3.8-4.1c-2.5,0-4,1.5-4.4,4.1H397z"/>
	<path class="st1" d="M407.4,66.2L407.4,66.2c1.3-1.6,3.1-2.5,5-2.5c3.1,0,5.6,2.1,5.6,6.6v10.1h-3.2V70.3c0-2.4-1.2-4-3.2-4
		c-1.4,0-2.6,0.7-4.1,2.4v11.7h-3.2V64.1h3.2V66.2z"/>
	<path class="st1" d="M436.7,78.8c-2,1.3-3.8,1.9-6.5,1.9c-5.1,0-8-4.2-8-8.7c0-5,3.1-8.3,7.7-8.3c4.3,0,7.1,3,7.1,9h-11.5
		c0.5,3.2,2.4,4.9,5.5,4.9c2,0,3.8-0.7,5.7-2V78.8z M433.8,70.6c-0.1-2.5-1.5-4.1-3.8-4.1c-2.5,0-4,1.5-4.4,4.1H433.8z"/>
	<path class="st1" d="M444.5,64.1v3.8h0.1c1.6-2.9,3.2-4.1,4.7-4.1c1.3,0,2.6,0.6,3.9,1.9l-1.7,2.8c-1-0.9-2.3-1.6-3-1.6
		c-2.2,0-4,2.2-4,5v8.6h-3.2V64.1H444.5z"/>
	<path class="st1" d="M468.8,79.5c-1.5,1-2.1,1.3-3.1,1.3c-1.4,0-2.2-0.5-2.5-1.7c-1.4,1.1-2.9,1.7-4.4,1.7c-2.4,0-4-1.9-4-4
		c0-3.2,3-4.2,5.6-5.2l2.9-1v-0.9c0-2-1-2.9-3-2.9c-1.8,0-3.6,0.8-5.2,2.7V66c1.3-1.5,3.1-2.2,5.4-2.2c3.3,0,5.9,1.7,5.9,5.4v8.4
		c0,0.6,0.2,0.8,0.6,0.8c0.3,0,1-0.3,1.7-0.9V79.5z M463.2,72.4c-2.8,0.9-5.2,1.9-5.2,3.8c0,1.4,1,2.3,2.3,2.3c1,0,2-0.5,2.8-1.4
		V72.4z"/>
	<path class="st1" d="M476,64.1h5.2V67H476v8.4c0,1.9,1.4,2.5,2.3,2.5c1.2,0,2.4-0.4,3.7-1.2v3c-1.1,0.6-2.9,1.1-3.9,1.1
		c-3.5,0-5.3-2.2-5.3-5.1V67h-2.8v-0.4l6.1-5.9V64.1z"/>
	<path class="st1" d="M486.6,61c-1.1,0-1.9-0.9-1.9-1.9c0-1.1,0.9-1.9,1.9-1.9c1.1,0,1.9,0.9,1.9,1.9C488.5,60.2,487.7,61,486.6,61z
		 M488.2,80.5H485V64.1h3.2V80.5z"/>
	<path class="st1" d="M510,72.1c0,5.2-3.6,8.7-8.9,8.7c-5,0-8.6-3.6-8.6-8.7c0-4.7,3.8-8.4,8.6-8.4C506.2,63.7,510,67.2,510,72.1z
		 M495.8,72.1c0,3.5,2.2,5.8,5.3,5.8c3.4,0,5.6-2.2,5.6-5.7c0-3.2-2.3-5.5-5.6-5.5C498,66.7,495.8,69,495.8,72.1z"/>
	<path class="st1" d="M517.3,66.2L517.3,66.2c1.3-1.6,3.1-2.5,5-2.5c3.1,0,5.6,2.1,5.6,6.6v10.1h-3.2V70.3c0-2.4-1.2-4-3.2-4
		c-1.4,0-2.6,0.7-4.1,2.4v11.7H514V64.1h3.2V66.2z"/>
</g>
<g>
	<path class="st1" d="M397.3,118.2h-0.7l-10.8-25.1h3.6l7.5,17.5l7.4-17.5h3.5L397.3,118.2z"/>
	<path class="st1" d="M423.6,109.6c0,5.2-3.6,8.7-8.9,8.7c-5,0-8.6-3.6-8.6-8.7c0-4.7,3.8-8.4,8.6-8.4
		C419.8,101.3,423.6,104.8,423.6,109.6z M409.4,109.6c0,3.5,2.2,5.8,5.3,5.8c3.4,0,5.6-2.2,5.6-5.7c0-3.2-2.3-5.5-5.6-5.5
		C411.6,104.2,409.4,106.5,409.4,109.6z"/>
	<path class="st1" d="M431,118h-3.2V93.1h3.2V118z"/>
	<path class="st1" d="M446.7,118v-2.1c-1.3,1.5-3.2,2.4-4.9,2.4c-3.3,0-5.7-2.4-5.7-6.5v-10.2h3.2V112c0,2.3,1.1,3.6,3.4,3.6
		c1.5,0,2.8-0.8,3.9-2.3v-11.7h3.2V118H446.7z"/>
	<path class="st1" d="M458.2,103.8L458.2,103.8c1.3-1.6,3.1-2.5,5-2.5c3.1,0,5.6,2.1,5.6,6.6V118h-3.2v-10.1c0-2.4-1.2-4-3.2-4
		c-1.4,0-2.6,0.7-4.1,2.4V118H455v-16.4h3.2V103.8z"/>
	<path class="st1" d="M477.6,101.6h5.2v2.9h-5.2v8.4c0,1.9,1.4,2.5,2.3,2.5c1.2,0,2.4-0.4,3.7-1.2v3c-1.1,0.6-2.9,1.1-3.9,1.1
		c-3.5,0-5.3-2.2-5.3-5.1v-8.6h-2.8v-0.4l6.1-5.9V101.6z"/>
	<path class="st1" d="M500.2,116.4c-2,1.3-3.8,1.9-6.5,1.9c-5.1,0-8-4.2-8-8.7c0-5,3.1-8.3,7.7-8.3c4.3,0,7.1,3,7.1,9H489
		c0.5,3.2,2.4,4.9,5.5,4.9c2,0,3.8-0.7,5.7-2V116.4z M497.3,108.1c-0.1-2.5-1.5-4.1-3.8-4.1c-2.5,0-4,1.5-4.4,4.1H497.3z"/>
	<path class="st1" d="M518.3,116.4c-2,1.3-3.8,1.9-6.5,1.9c-5.1,0-8-4.2-8-8.7c0-5,3.1-8.3,7.7-8.3c4.3,0,7.1,3,7.1,9H507
		c0.5,3.2,2.4,4.9,5.5,4.9c2,0,3.8-0.7,5.7-2V116.4z M515.3,108.1c-0.1-2.5-1.5-4.1-3.8-4.1c-2.5,0-4,1.5-4.4,4.1H515.3z"/>
	<path class="st1" d="M526.1,101.6v3.8h0.1c1.6-2.9,3.2-4.1,4.7-4.1c1.3,0,2.6,0.6,3.9,1.9l-1.7,2.8c-1-0.9-2.3-1.6-3-1.6
		c-2.2,0-4,2.2-4,5v8.6h-3.2v-16.4H526.1z"/>
	<path class="st1" d="M539.3,98.6c-1.1,0-1.9-0.9-1.9-1.9s0.9-1.9,1.9-1.9c1.1,0,1.9,0.9,1.9,1.9S540.4,98.6,539.3,98.6z M540.9,118
		h-3.2v-16.4h3.2V118z"/>
	<path class="st1" d="M549.3,103.8L549.3,103.8c1.3-1.6,3.1-2.5,5-2.5c3.1,0,5.6,2.1,5.6,6.6V118h-3.2v-10.1c0-2.4-1.2-4-3.2-4
		c-1.4,0-2.6,0.7-4.1,2.4V118h-3.2v-16.4h3.2V103.8z"/>
	<path class="st1" d="M578,104.1h-3.4c1.3,1.3,1.7,2.2,1.7,3.6c0,1.3-0.8,2.9-1.5,3.7c-2.2,2.3-6.6,1.2-6.6,3.1c0,0.9,1.7,1.5,5,2.1
		c3.5,0.7,4.7,2.5,4.7,4.6c0,3.2-2.9,5.2-7.7,5.2c-4.4,0-7.6-2.1-7.6-5c0-2.4,1.3-3.8,4.1-4.5c-1.1-0.7-1.6-1.4-1.6-2.1
		c0-1.1,1-2,2.6-2.3v-0.1c-1.2-0.5-2.1-1.2-2.7-2.1c-0.6-0.8-0.9-1.9-0.9-3.1c0-3.5,2.7-5.7,7.2-5.7h6.7V104.1z M569.4,118.8
		c-2.2,0-3.7,1-3.7,2.5c0,1.6,1.6,2.5,4.6,2.5c2.8,0,4.5-0.9,4.5-2.4C574.8,119.3,571.4,118.8,569.4,118.8z M570.3,104.4
		c-1.8,0-3.2,1.4-3.2,3c0,1.8,1.3,3,3.3,3c1.8,0,3.1-1.3,3.1-3.1C573.4,105.7,572,104.4,570.3,104.4z"/>
</g>
<g>
	<path class="st1" d="M369.7,104.7c0,3.7-2.6,6.2-6.3,6.2c-3.6,0-6.1-2.6-6.1-6.2c0-3.3,2.7-5.9,6.1-5.9
		C367.1,98.8,369.7,101.3,369.7,104.7z M359.6,104.7c0,2.5,1.5,4.1,3.7,4.1c2.4,0,4-1.6,4-4.1c0-2.2-1.7-3.9-4-3.9
		C361.2,100.8,359.6,102.5,359.6,104.7z"/>
	<path class="st1" d="M378.3,95.2c-0.4-0.2-0.6-0.2-1-0.2c-1.9,0-2.5,1.1-2.5,2.9V99h2.1v2.1h-2.1v9.5h-2.3v-9.5h-1.6V99h1.6v-0.9
		c0-2.3,0.5-3.4,1.5-4.3c1-1,2.3-1.4,4.3-0.9V95.2z"/>
</g>
</svg>
